<svg width="120" height="100" viewBox="0 0 374 222" fill="none" xmlns="http://www.w3.org/2000/svg">
<mask id="path-2-inside-1_0_1" fill="white">
<path d="M41 40H333V118H41V40Z"/>
</mask>
<path d="M41 40V33H34V40H41ZM333 40H340V33H333V40ZM41 47H333V33H41V47ZM326 40V118H340V40H326ZM48 118V40H34V118H48Z" fill="black" mask="url(#path-2-inside-1_0_1)"/>
<path d="M122.546 77.04C122.546 75.888 122.954 75.012 123.77 74.412C124.586 73.788 125.786 73.476 127.37 73.476V84.204H138.134V77.04C138.134 75.864 138.542 74.976 139.358 74.376C140.198 73.776 141.398 73.476 142.958 73.476V95.76C142.958 96.912 142.538 97.8 141.698 98.424C140.882 99.024 139.694 99.324 138.134 99.324V88.38H127.37V95.76C127.37 96.912 126.95 97.8 126.11 98.424C125.294 99.024 124.106 99.324 122.546 99.324V77.04ZM147.19 75.996C147.19 75.372 147.418 74.856 147.874 74.448C148.33 74.016 148.906 73.8 149.602 73.8H159.214C161.806 73.8 163.81 74.484 165.226 75.852C166.666 77.22 167.386 79.14 167.386 81.612C167.386 83.028 167.098 84.228 166.522 85.212C165.946 86.172 165.07 86.94 163.894 87.516V87.624C166.006 88.56 167.062 90.336 167.062 92.952V95.76C167.062 96.912 166.654 97.8 165.838 98.424C165.022 99.024 163.822 99.324 162.238 99.324V93.168C162.238 91.896 161.986 90.96 161.482 90.36C160.978 89.76 160.21 89.46 159.178 89.46H151.942V95.76C151.942 96.936 151.534 97.824 150.718 98.424C149.926 99.024 148.75 99.324 147.19 99.324V75.996ZM158.962 85.356C160.114 85.356 161.002 85.032 161.626 84.384C162.25 83.712 162.562 82.776 162.562 81.576C162.562 79.128 161.362 77.904 158.962 77.904H151.942V85.356H158.962ZM190.922 99.324C188.786 99.324 186.878 98.916 185.198 98.1C183.542 97.284 182.246 96.144 181.31 94.68C180.374 93.216 179.906 91.548 179.906 89.676V83.052C179.906 81.18 180.362 79.524 181.274 78.084C182.21 76.62 183.494 75.492 185.126 74.7C186.758 73.884 188.63 73.476 190.742 73.476C192.854 73.476 194.726 73.8 196.358 74.448C198.014 75.072 199.298 75.96 200.21 77.112C201.122 78.24 201.578 79.536 201.578 81C201.578 81.888 201.278 82.596 200.678 83.124C200.102 83.628 199.322 83.88 198.338 83.88C197.858 83.88 197.33 83.808 196.754 83.664C196.802 83.088 196.826 82.524 196.826 81.972C196.826 80.7 196.262 79.668 195.134 78.876C194.006 78.084 192.542 77.688 190.742 77.688C188.966 77.688 187.514 78.192 186.386 79.2C185.282 80.184 184.73 81.468 184.73 83.052V89.676C184.73 91.284 185.306 92.592 186.458 93.6C187.61 94.608 189.098 95.112 190.922 95.112C192.722 95.112 194.186 94.716 195.314 93.924C196.442 93.132 197.006 92.112 197.006 90.864C197.006 90.288 196.982 89.736 196.934 89.208C197.534 89.088 198.038 89.028 198.446 89.028C199.454 89.028 200.258 89.292 200.858 89.82C201.458 90.348 201.758 91.068 201.758 91.98C201.758 93.396 201.302 94.668 200.39 95.796C199.478 96.9 198.194 97.764 196.538 98.388C194.906 99.012 193.034 99.324 190.922 99.324ZM211.843 99.324C210.283 99.324 208.867 99.048 207.595 98.496C206.347 97.92 205.363 97.128 204.643 96.12C203.923 95.112 203.563 93.972 203.563 92.7V87.624C203.563 86.328 203.911 85.152 204.607 84.096C205.327 83.04 206.311 82.212 207.559 81.612C208.807 80.988 210.235 80.676 211.843 80.676C213.451 80.676 214.879 80.988 216.127 81.612C217.399 82.212 218.383 83.04 219.079 84.096C219.799 85.152 220.159 86.328 220.159 87.624V92.7C220.159 93.972 219.787 95.112 219.043 96.12C218.323 97.128 217.327 97.92 216.055 98.496C214.807 99.048 213.403 99.324 211.843 99.324ZM211.843 95.472C213.043 95.472 213.979 95.196 214.651 94.644C215.347 94.092 215.695 93.348 215.695 92.412V87.84C215.695 86.856 215.347 86.064 214.651 85.464C213.979 84.84 213.043 84.528 211.843 84.528C210.667 84.528 209.731 84.84 209.035 85.464C208.339 86.064 207.991 86.856 207.991 87.84V92.412C207.991 93.348 208.339 94.092 209.035 94.644C209.731 95.196 210.667 95.472 211.843 95.472ZM232.907 84.564C231.491 84.564 230.339 84.948 229.451 85.716C228.563 86.46 228.119 87.396 228.119 88.524V96.588C228.119 97.548 227.759 98.244 227.039 98.676C226.319 99.108 225.191 99.324 223.655 99.324V84.132C223.655 83.028 224.003 82.176 224.699 81.576C225.419 80.976 226.499 80.676 227.939 80.676V82.8C227.579 83.208 227.291 83.604 227.075 83.988L227.291 84.132C228.803 81.828 230.699 80.676 232.979 80.676C234.011 80.676 234.791 80.952 235.319 81.504C235.847 82.032 236.111 82.704 236.111 83.52C236.111 84.144 235.943 84.672 235.607 85.104C234.959 84.744 234.059 84.564 232.907 84.564ZM245.425 99.324C243.937 99.324 242.581 99.036 241.357 98.46C240.133 97.86 239.161 97.056 238.441 96.048C237.721 95.016 237.361 93.864 237.361 92.592V87.804C237.361 86.46 237.733 85.248 238.477 84.168C239.221 83.088 240.205 82.236 241.429 81.612C242.677 80.988 244.021 80.676 245.461 80.676C246.877 80.676 248.173 80.976 249.349 81.576C250.549 82.152 251.497 82.968 252.193 84.024C252.889 85.056 253.237 86.244 253.237 87.588V89.604C253.237 90.132 253.033 90.576 252.625 90.936C252.241 91.296 251.749 91.476 251.149 91.476H241.717V92.268C241.717 93.3 242.029 94.14 242.653 94.788C243.277 95.436 244.213 95.76 245.461 95.76C246.661 95.76 247.549 95.496 248.125 94.968C248.725 94.44 249.025 93.756 249.025 92.916C249.457 92.868 249.757 92.844 249.925 92.844C250.813 92.844 251.509 93.048 252.013 93.456C252.517 93.84 252.769 94.392 252.769 95.112C252.769 95.808 252.445 96.48 251.797 97.128C251.149 97.776 250.261 98.304 249.133 98.712C248.005 99.12 246.769 99.324 245.425 99.324ZM249.169 88.272V87.588C249.169 86.58 248.821 85.764 248.125 85.14C247.429 84.516 246.529 84.204 245.425 84.204C244.321 84.204 243.421 84.516 242.725 85.14C242.053 85.74 241.717 86.556 241.717 87.588V88.272H249.169Z" fill="black"/>
<line x1="329.5" y1="150" x2="329.5" y2="116" stroke="black" stroke-width="7"/>
<path d="M189.626 132.533L189.677 132.488C193.636 128.803 196.895 125.777 203.549 125.102C207.26 124.742 211.01 125.339 214.339 126.82C217.138 128.043 219.57 129.825 221.437 132.024C223.326 134.229 224.517 136.832 224.89 139.57C225.18 141.802 224.896 144.063 224.058 146.186H220.423C221.4 144.212 221.773 142.048 221.506 139.909C221.196 137.694 220.23 135.588 218.703 133.802C217.152 131.984 215.139 130.508 212.824 129.492C210.081 128.273 206.993 127.78 203.936 128.074C198.519 128.618 195.648 131.29 192.155 134.531L190.891 135.699C190.575 135.981 190.146 136.142 189.696 136.148C189.245 136.153 188.811 136.003 188.486 135.729L187.262 134.681C182.978 130.985 179.747 128.189 173.076 128.129C172.809 128.129 172.535 128.129 172.245 128.129C168.658 128.202 165.222 129.402 162.56 131.509C161.243 132.596 160.196 133.909 159.484 135.367C158.771 136.824 158.409 138.394 158.418 139.979C158.418 140.199 158.418 140.433 158.418 140.678C158.512 142.562 158.947 144.422 159.706 146.186H156.1C155.455 144.434 155.085 142.613 155 140.773C155 140.503 155 140.224 155 139.934C154.992 137.948 155.452 135.982 156.35 134.159C157.247 132.336 158.564 130.694 160.218 129.337C163.482 126.73 167.711 125.245 172.125 125.157C172.438 125.157 172.774 125.157 173.116 125.157C181.155 125.247 184.801 128.378 189.637 132.543L189.626 132.533ZM156.139 150.791H172.427L176.124 145.552L182.647 153.847L189.182 142.246L196.229 154.142L199.567 151.145H223.876V154.142H201.003L195.385 159.195L189.25 148.863L183.137 159.73L176.301 151.006L174.341 153.787H156.139V150.791ZM213.353 159.175L213.188 159.33C210.34 161.907 207.332 164.439 204.643 166.716C203.059 168.045 201.578 169.288 200.325 170.377L190.891 178.577C190.572 178.848 190.145 179 189.7 179C189.255 179 188.828 178.848 188.509 178.577L180.699 172.015C179.275 170.816 177.622 169.493 175.902 168.119C172.45 165.358 168.73 162.387 165.403 159.175H170.097C172.74 161.548 175.549 163.795 178.198 165.907C179.907 167.256 181.508 168.554 183.057 169.862L189.654 175.435L197.903 168.259C199.202 167.131 200.678 165.887 202.256 164.564C204.267 162.876 206.449 161.068 208.579 159.175H213.353Z" fill="black"/>
<path d="M189.626 132.533L189.677 132.488C193.636 128.803 196.895 125.777 203.549 125.102C207.26 124.742 211.01 125.339 214.339 126.82C217.138 128.043 219.57 129.825 221.437 132.024C223.326 134.229 224.517 136.832 224.89 139.57C225.18 141.802 224.896 144.063 224.058 146.186H220.423C221.4 144.212 221.773 142.048 221.506 139.909C221.196 137.694 220.23 135.588 218.703 133.802C217.152 131.984 215.139 130.508 212.824 129.492C210.081 128.273 206.993 127.78 203.936 128.074C198.519 128.618 195.648 131.29 192.155 134.531L190.891 135.699C190.575 135.981 190.146 136.142 189.696 136.148C189.245 136.153 188.811 136.003 188.486 135.729L187.262 134.681C182.978 130.985 179.747 128.189 173.076 128.129C172.809 128.129 172.535 128.129 172.245 128.129C168.658 128.202 165.222 129.402 162.56 131.509C161.243 132.596 160.196 133.909 159.484 135.367C158.771 136.824 158.409 138.394 158.418 139.979C158.418 140.199 158.418 140.433 158.418 140.678C158.512 142.562 158.947 144.422 159.706 146.186H156.1C155.455 144.434 155.085 142.613 155 140.773C155 140.503 155 140.224 155 139.934C154.992 137.948 155.452 135.982 156.35 134.159C157.247 132.336 158.564 130.694 160.218 129.337C163.482 126.73 167.711 125.245 172.125 125.157C172.438 125.157 172.774 125.157 173.116 125.157C181.155 125.247 184.801 128.378 189.637 132.543L189.626 132.533ZM156.139 150.791H172.427L176.124 145.552L182.647 153.847L189.182 142.246L196.229 154.142L199.567 151.145H223.876V154.142H201.003L195.385 159.195L189.25 148.863L183.137 159.73L176.301 151.006L174.341 153.787H156.139V150.791ZM213.353 159.175L213.188 159.33C210.34 161.907 207.332 164.439 204.643 166.716C203.059 168.045 201.578 169.288 200.325 170.377L190.891 178.577C190.572 178.848 190.145 179 189.7 179C189.255 179 188.828 178.848 188.509 178.577L180.699 172.015C179.275 170.816 177.622 169.493 175.902 168.119C172.45 165.358 168.73 162.387 165.403 159.175H170.097C172.74 161.548 175.549 163.795 178.198 165.907C179.907 167.256 181.508 168.554 183.057 169.862L189.654 175.435L197.903 168.259C199.202 167.131 200.678 165.887 202.256 164.564C204.267 162.876 206.449 161.068 208.579 159.175H213.353Z" fill="black"/>
<path d="M189.626 132.533L189.677 132.488C193.636 128.803 196.895 125.777 203.549 125.102C207.26 124.742 211.01 125.339 214.339 126.82C217.138 128.043 219.57 129.825 221.437 132.024C223.326 134.229 224.517 136.832 224.89 139.57C225.18 141.802 224.896 144.063 224.058 146.186H220.423C221.4 144.212 221.773 142.048 221.506 139.909C221.196 137.694 220.23 135.588 218.703 133.802C217.152 131.984 215.139 130.508 212.824 129.492C210.081 128.273 206.993 127.78 203.936 128.074C198.519 128.618 195.648 131.29 192.155 134.531L190.891 135.699C190.575 135.981 190.146 136.142 189.696 136.148C189.245 136.153 188.811 136.003 188.486 135.729L187.262 134.681C182.978 130.985 179.747 128.189 173.076 128.129C172.809 128.129 172.535 128.129 172.245 128.129C168.658 128.202 165.222 129.402 162.56 131.509C161.243 132.596 160.196 133.909 159.484 135.367C158.771 136.824 158.409 138.394 158.418 139.979C158.418 140.199 158.418 140.433 158.418 140.678C158.512 142.562 158.947 144.422 159.706 146.186H156.1C155.455 144.434 155.085 142.613 155 140.773C155 140.503 155 140.224 155 139.934C154.992 137.948 155.452 135.982 156.35 134.159C157.247 132.336 158.564 130.694 160.218 129.337C163.482 126.73 167.711 125.245 172.125 125.157C172.438 125.157 172.774 125.157 173.116 125.157C181.155 125.247 184.801 128.378 189.637 132.543L189.626 132.533ZM156.139 150.791H172.427L176.124 145.552L182.647 153.847L189.182 142.246L196.229 154.142L199.567 151.145H223.876V154.142H201.003L195.385 159.195L189.25 148.863L183.137 159.73L176.301 151.006L174.341 153.787H156.139V150.791ZM213.353 159.175L213.188 159.33C210.34 161.907 207.332 164.439 204.643 166.716C203.059 168.045 201.578 169.288 200.325 170.377L190.891 178.577C190.572 178.848 190.145 179 189.7 179C189.255 179 188.828 178.848 188.509 178.577L180.699 172.015C179.275 170.816 177.622 169.493 175.902 168.119C172.45 165.358 168.73 162.387 165.403 159.175H170.097C172.74 161.548 175.549 163.795 178.198 165.907C179.907 167.256 181.508 168.554 183.057 169.862L189.654 175.435L197.903 168.259C199.202 167.131 200.678 165.887 202.256 164.564C204.267 162.876 206.449 161.068 208.579 159.175H213.353Z" stroke="red" stroke-width="3"/>
<line x1="237" y1="152.5" x2="333" y2="152.5" stroke="black" stroke-width="7"/>
<line x1="44.5" y1="150" x2="44.5" y2="116" stroke="black" stroke-width="7"/>
<line x1="41" y1="152.5" x2="137" y2="152.5" stroke="black" stroke-width="7"/>
</svg>
