<?xml version="1.0" standalone="no"?>
<!DOCTYPE svg PUBLIC "-//W3C//DTD SVG 20010904//EN"
 "http://www.w3.org/TR/2001/REC-SVG-20010904/DTD/svg10.dtd">
<svg version="1.0" xmlns="http://www.w3.org/2000/svg"
 width="10px" height="10px" viewBox="0 0 1260.000000 1280.000000"
 preserveAspectRatio="xMidYMid meet">
<metadata>
Created by potrace 1.15, written by Peter Selinger 2001-2017
</metadata>
<g transform="translate(0.000000,1280.000000) scale(0.100000,-0.100000)"
fill="grey" stroke="none">
<path d="M10043 12730 c-153 -116 -374 -246 -868 -512 -466 -251 -774 -412
-1700 -891 -159 -82 -499 -257 -755 -390 -1632 -843 -2374 -1232 -3228 -1694
-1673 -904 -2692 -1529 -3146 -1930 -358 -316 -435 -609 -238 -908 63 -95 258
-293 422 -428 704 -578 2267 -1575 5020 -3202 85 -51 317 -188 515 -305 198
-117 691 -409 1095 -648 1763 -1043 2466 -1479 2795 -1732 l120 -92 120 5 c93
4 136 10 193 30 217 75 427 286 643 647 618 1034 1330 3389 1519 5025 37 319
44 442 44 785 0 330 -6 472 -35 740 -131 1224 -500 2675 -991 3900 -334 831
-650 1348 -949 1551 -122 82 -242 119 -390 119 l-94 0 -92 -70z"/>
</g>
</svg>
