<svg width="20" height="20" viewBox="0 0 20 20" fill="none" xmlns="http://www.w3.org/2000/svg">
<path d="M17.4917 8.0915C17.2083 7.97484 16.8333 7.9165 16.3667 7.9165H11.9667C10.5167 7.9165 10 8.43317 10 9.89984V16.3498C10 16.8332 10.0583 17.2082 10.1833 17.4998C10.4417 18.0998 10.9917 18.3332 11.9667 18.3332H16.3667C17.8167 18.3332 18.3333 17.8082 18.3333 16.3498V9.89984C18.3333 8.90817 18.1 8.34984 17.4917 8.0915ZM15 16.4582H13.3333C13.3167 16.4582 13.2917 16.4582 13.275 16.4498C13.15 16.4415 13.0417 16.3998 12.95 16.3165C12.8 16.2082 12.7083 16.0332 12.7083 15.8332C12.7083 15.4915 12.9917 15.2082 13.3333 15.2082H15C15.3417 15.2082 15.625 15.4915 15.625 15.8332C15.625 16.1748 15.3417 16.4582 15 16.4582Z" fill="#C4C4C4"/>
<path d="M17.4917 5.15817V5.83317C17.4917 6.2915 17.1167 6.6665 16.6584 6.6665H11.9667C9.83338 6.6665 8.75005 7.75817 8.75005 9.89984V17.4998C8.75005 17.9582 8.37505 18.3332 7.91672 18.3332H6.29172C5.95838 18.3332 5.69172 18.0665 5.69172 17.7415C5.69172 17.4082 5.95838 17.1498 6.29172 17.1498H7.91672V13.9582H5.00005C3.15005 13.8665 1.67505 12.3415 1.67505 10.4665V5.15817C1.67505 3.23317 3.24172 1.6665 5.17505 1.6665H14C15.925 1.6665 17.4917 3.23317 17.4917 5.15817Z" fill="#C4C4C4"/>
</svg>
