<svg width="20" height="20" viewBox="0 0 20 20" fill="none" xmlns="http://www.w3.org/2000/svg">
<path d="M14.1667 1.6665H5.83341C3.53341 1.6665 1.66675 3.52484 1.66675 5.8165V10.7998V11.6332C1.66675 13.9248 3.53341 15.7832 5.83341 15.7832H7.08341C7.30841 15.7832 7.60842 15.9332 7.75008 16.1165L9.00008 17.7748C9.55008 18.5082 10.4501 18.5082 11.0001 17.7748L12.2501 16.1165C12.4084 15.9082 12.6584 15.7832 12.9167 15.7832H14.1667C16.4667 15.7832 18.3334 13.9248 18.3334 11.6332V5.8165C18.3334 3.52484 16.4667 1.6665 14.1667 1.6665ZM10.8334 11.4582H5.83341C5.49175 11.4582 5.20841 11.1748 5.20841 10.8332C5.20841 10.4915 5.49175 10.2082 5.83341 10.2082H10.8334C11.1751 10.2082 11.4584 10.4915 11.4584 10.8332C11.4584 11.1748 11.1751 11.4582 10.8334 11.4582ZM14.1667 7.2915H5.83341C5.49175 7.2915 5.20841 7.00817 5.20841 6.6665C5.20841 6.32484 5.49175 6.0415 5.83341 6.0415H14.1667C14.5084 6.0415 14.7917 6.32484 14.7917 6.6665C14.7917 7.00817 14.5084 7.2915 14.1667 7.2915Z" fill="#C4C4C4"/>
</svg>
