<svg width="20" height="20" viewBox="0 0 20 20" fill="none" xmlns="http://www.w3.org/2000/svg">
<path d="M12.5001 18.9583C12.2751 18.9583 12.0667 18.8333 11.9584 18.6417C11.8501 18.45 11.8501 18.2083 11.9667 18.0167L12.8417 16.5583C13.0167 16.2583 13.4001 16.1667 13.7001 16.3417C14.0001 16.5167 14.0917 16.9 13.9167 17.2L13.6917 17.575C15.9917 17.0333 17.7167 14.9667 17.7167 12.5C17.7167 12.1583 18.0001 11.875 18.3417 11.875C18.6834 11.875 18.9667 12.1583 18.9667 12.5C18.9584 16.0583 16.0584 18.9583 12.5001 18.9583Z" fill="#C4C4C4"/>
<path d="M1.66675 8.12484C1.32508 8.12484 1.04175 7.8415 1.04175 7.49984C1.04175 3.9415 3.94175 1.0415 7.50008 1.0415C7.72508 1.0415 7.93341 1.1665 8.04175 1.35817C8.15008 1.54984 8.15008 1.7915 8.03341 1.98317L7.15841 3.44984C6.98341 3.7415 6.60008 3.8415 6.30008 3.65817C6.00841 3.48317 5.90841 3.09984 6.09175 2.79984L6.31675 2.42484C4.00841 2.9665 2.29175 5.03317 2.29175 7.49984C2.29175 7.8415 2.00841 8.12484 1.66675 8.12484Z" fill="#C4C4C4"/>
<path d="M8.89155 11.5418L6.27489 10.1335C5.99989 9.9835 5.66655 9.9835 5.39155 10.1335L2.77489 11.5418C2.58322 11.6418 2.46655 11.8502 2.46655 12.0752C2.46655 12.3002 2.58322 12.5085 2.77489 12.6085L5.39155 14.0168C5.53322 14.0918 5.68322 14.1252 5.83322 14.1252C5.98322 14.1252 6.13322 14.0918 6.27489 14.0168L8.89155 12.6085C9.08322 12.5085 9.19989 12.3002 9.19989 12.0752C9.19989 11.8502 9.07489 11.6502 8.89155 11.5418Z" fill="#C4C4C4"/>
<path d="M4.95841 14.5082L2.52508 13.2915C2.34175 13.1999 2.12508 13.2082 1.94175 13.3165C1.77508 13.4249 1.66675 13.6165 1.66675 13.8249V16.1249C1.66675 16.5249 1.88341 16.8832 2.24175 17.0582L4.67508 18.2749C4.75842 18.3082 4.85008 18.3332 4.94175 18.3332C5.05008 18.3332 5.15842 18.2999 5.25842 18.2415C5.43342 18.1332 5.54175 17.9415 5.54175 17.7332V15.4332C5.54175 15.0415 5.31675 14.6832 4.95841 14.5082Z" fill="#C4C4C4"/>
<path d="M9.71667 13.3165C9.54167 13.2082 9.325 13.1999 9.13333 13.2915L6.7 14.5082C6.34167 14.6832 6.125 15.0415 6.125 15.4415V17.7415C6.125 17.9499 6.23333 18.1415 6.40833 18.2499C6.50833 18.2999 6.61667 18.3332 6.725 18.3332C6.81667 18.3332 6.90833 18.3082 6.99167 18.2665L9.425 17.0499C9.78333 16.8749 10 16.5165 10 16.1165V13.8165C10 13.6165 9.89167 13.4249 9.71667 13.3165Z" fill="#C4C4C4"/>
<path d="M17.225 3.19173L14.6084 1.7834C14.3334 1.6334 14 1.6334 13.725 1.7834L11.1084 3.19173C10.9167 3.29173 10.8 3.50006 10.8 3.72506C10.8 3.95006 10.9167 4.1584 11.1084 4.2584L13.725 5.66673C13.8667 5.74173 14.0167 5.77506 14.1667 5.77506C14.3167 5.77506 14.4667 5.74173 14.6084 5.66673L17.225 4.2584C17.4167 4.1584 17.5334 3.95006 17.5334 3.72506C17.5334 3.49173 17.4084 3.29173 17.225 3.19173Z" fill="#C4C4C4"/>
<path d="M13.2917 6.1498L10.8583 4.93314C10.675 4.84147 10.4583 4.8498 10.275 4.95814C10.1083 5.06647 10 5.25814 10 5.46647V7.76647C10 8.16647 10.2167 8.5248 10.575 8.6998L13.0083 9.91647C13.0917 9.95814 13.1833 9.98314 13.275 9.98314C13.3833 9.98314 13.4917 9.9498 13.5917 9.89147C13.7667 9.78314 13.875 9.59147 13.875 9.38314V7.08314C13.875 6.68314 13.65 6.3248 13.2917 6.1498Z" fill="#C4C4C4"/>
<path d="M18.0499 4.95814C17.8749 4.8498 17.6583 4.84147 17.4666 4.93314L15.0333 6.1498C14.6749 6.3248 14.4583 6.68314 14.4583 7.08314V9.38314C14.4583 9.59147 14.5666 9.78314 14.7416 9.89147C14.8416 9.9498 14.9499 9.98314 15.0583 9.98314C15.1499 9.98314 15.2416 9.95814 15.3249 9.91647L17.7583 8.6998C18.1166 8.51647 18.3333 8.15814 18.3333 7.76647V5.46647C18.3333 5.25814 18.2249 5.06647 18.0499 4.95814Z" fill="#C4C4C4"/>
</svg>
