<svg width="20" height="20" viewBox="0 0 20 20" fill="none" xmlns="http://www.w3.org/2000/svg">
<path d="M13.4917 1.6665H6.50841C3.47508 1.6665 1.66675 3.47484 1.66675 6.50817V13.4832C1.66675 16.5248 3.47508 18.3332 6.50841 18.3332H13.4834C16.5167 18.3332 18.3251 16.5248 18.3251 13.4915V6.50817C18.3334 3.47484 16.5251 1.6665 13.4917 1.6665ZM6.39175 4.58317C6.39175 4.2415 6.67508 3.95817 7.01675 3.95817C7.35841 3.95817 7.64175 4.2415 7.64175 4.58317V7.83317C7.64175 8.17484 7.35841 8.45817 7.01675 8.45817C6.67508 8.45817 6.39175 8.17484 6.39175 7.83317V4.58317ZM7.99263 13.6664C7.79172 13.7622 7.64175 13.953 7.64175 14.1756V15.4165C7.64175 15.7582 7.35841 16.0415 7.01675 16.0415C6.67508 16.0415 6.39175 15.7582 6.39175 15.4165V14.1756C6.39175 13.953 6.24174 13.7623 6.04093 13.6662C5.27618 13.3005 4.75008 12.5261 4.75008 11.6248C4.75008 10.3748 5.76675 9.34984 7.01675 9.34984C8.26675 9.34984 9.29175 10.3665 9.29175 11.6248C9.29175 12.5262 8.75916 13.3007 7.99263 13.6664ZM13.6084 15.4165C13.6084 15.7582 13.3251 16.0415 12.9834 16.0415C12.6417 16.0415 12.3584 15.7582 12.3584 15.4165V12.1665C12.3584 11.8248 12.6417 11.5415 12.9834 11.5415C13.3251 11.5415 13.6084 11.8248 13.6084 12.1665V15.4165ZM12.9834 10.6415C11.7334 10.6415 10.7084 9.62484 10.7084 8.3665C10.7084 7.46517 11.241 6.69064 12.0075 6.32497C12.2084 6.22913 12.3584 6.03831 12.3584 5.81571V4.58317C12.3584 4.2415 12.6417 3.95817 12.9834 3.95817C13.3251 3.95817 13.6084 4.2415 13.6084 4.58317V5.82405C13.6084 6.04664 13.7584 6.23741 13.9592 6.33345C14.724 6.69918 15.2501 7.47363 15.2501 8.37484C15.2501 9.62484 14.2334 10.6415 12.9834 10.6415Z" fill="#C4C4C4"/>
</svg>
