<svg width="18" height="18" viewBox="0 0 18 18" fill="" xmlns="http://www.w3.org/2000/svg">
<path d="M9.74653 1.7822L11.1382 4.301C11.3289 4.64674 11.812 4.97267 12.2112 5.01395L14.587 5.29024C16.1083 5.46388 16.492 6.53095 15.4462 7.66068L13.6646 9.57462C13.3672 9.89536 13.2091 10.5039 13.3241 10.9196L13.9239 13.1505C14.3956 14.9118 13.4641 15.6513 11.8453 14.7977L9.58378 13.605C9.17191 13.387 8.51449 13.4247 8.12372 13.6766L5.94957 15.0808C4.39318 16.0846 3.41358 15.4405 3.76837 13.6403L4.22245 11.3619C4.30723 10.936 4.11751 10.3443 3.7986 10.055L1.89562 8.32231C0.778966 7.30148 1.09089 6.20097 2.59303 5.8772L4.93851 5.37333C5.33438 5.28504 5.79531 4.92248 5.95915 4.55614L7.18092 1.90471C7.83807 0.473386 8.99521 0.418949 9.74653 1.7822Z" fill=""/>
</svg>
