<svg width="24" height="24" viewBox="0 0 24 24" fill="none" xmlns="http://www.w3.org/2000/svg">
<path d="M20.19 14.0598L19.06 12.1798C18.81 11.7698 18.59 10.9798 18.59 10.4998V8.6298C18.59 4.9998 15.64 2.0498 12.02 2.0498C8.38996 2.0598 5.43996 4.9998 5.43996 8.6298V10.4898C5.43996 10.9698 5.21996 11.7598 4.97996 12.1698L3.84996 14.0498C3.41996 14.7798 3.31996 15.6098 3.58996 16.3298C3.85996 17.0598 4.46996 17.6398 5.26996 17.8998C6.34996 18.2598 7.43996 18.5198 8.54996 18.7098C8.65996 18.7298 8.76996 18.7398 8.87996 18.7598C9.01996 18.7798 9.16996 18.7998 9.31996 18.8198C9.57996 18.8598 9.83996 18.8898 10.11 18.9098C10.74 18.9698 11.38 18.9998 12.02 18.9998C12.65 18.9998 13.28 18.9698 13.9 18.9098C14.13 18.8898 14.36 18.8698 14.58 18.8398C14.76 18.8198 14.94 18.7998 15.12 18.7698C15.23 18.7598 15.34 18.7398 15.45 18.7198C16.57 18.5398 17.68 18.2598 18.76 17.8998C19.53 17.6398 20.12 17.0598 20.4 16.3198C20.68 15.5698 20.6 14.7498 20.19 14.0598ZM12.75 9.9998C12.75 10.4198 12.41 10.7598 11.99 10.7598C11.57 10.7598 11.23 10.4198 11.23 9.9998V6.89981C11.23 6.4798 11.57 6.1398 11.99 6.1398C12.41 6.1398 12.75 6.4798 12.75 6.89981V9.9998Z" fill="#C4C4C4"/>
<path d="M14.8301 20.01C14.4101 21.17 13.3001 22 12.0001 22C11.2101 22 10.4301 21.68 9.88005 21.11C9.56005 20.81 9.32005 20.41 9.18005 20C9.31005 20.02 9.44005 20.03 9.58005 20.05C9.81005 20.08 10.0501 20.11 10.2901 20.13C10.8601 20.18 11.4401 20.21 12.0201 20.21C12.5901 20.21 13.1601 20.18 13.7201 20.13C13.9301 20.11 14.1401 20.1 14.3401 20.07C14.5001 20.05 14.6601 20.03 14.8301 20.01Z" fill="#C4C4C4"/>
<circle cx="19" cy="5" r="5" fill="#FF5630"/>
<path d="M15.366 4.984C15.366 4.38 15.494 3.896 15.75 3.532C16.006 3.16 16.382 2.974 16.878 2.974C17.374 2.974 17.748 3.158 18 3.526C18.256 3.89 18.384 4.376 18.384 4.984C18.384 5.6 18.254 6.102 17.994 6.49C17.738 6.874 17.366 7.066 16.878 7.066C16.39 7.066 16.016 6.872 15.756 6.484C15.496 6.096 15.366 5.596 15.366 4.984ZM17.724 4.99C17.724 4.034 17.442 3.556 16.878 3.556C16.31 3.556 16.026 4.034 16.026 4.99C16.026 5.986 16.31 6.484 16.878 6.484C17.442 6.484 17.724 5.986 17.724 4.99ZM21.714 5.728C21.714 6.12 21.572 6.442 21.288 6.694C21.008 6.942 20.668 7.066 20.268 7.066C19.956 7.066 19.68 6.99 19.44 6.838C19.2 6.682 19.012 6.472 18.876 6.208L19.32 5.896C19.576 6.288 19.886 6.484 20.25 6.484C20.49 6.484 20.684 6.416 20.832 6.28C20.984 6.14 21.06 5.958 21.06 5.734C21.06 5.51 20.98 5.338 20.82 5.218C20.664 5.098 20.44 5.038 20.148 5.038H19.71V4.864L20.634 3.622H19.158V3.04H21.624V3.214L20.664 4.51C20.952 4.558 21.2 4.688 21.408 4.9C21.612 5.108 21.714 5.384 21.714 5.728Z" fill="white"/>
</svg>
